<?xml version="1.0" encoding="UTF-8"?>
<svg id="_레이어_2" data-name="레이어 2" xmlns="http://www.w3.org/2000/svg" viewBox="0 0 3611.88 919.84">
  <defs>
    <style>
      .cls-1 {
        fill: #b18f6c;
      }
    </style>
  </defs>
  <g id="_레이어_1-2" data-name="레이어 1">
    <path class="cls-1" d="M425.98.95c-31.8,3.2-37.2,3.9-57.5,8-9.4,1.9-28.9,6.5-34,8-6.5,1.9-34.1,11-36,11.8-1.1.5-4.7,1.9-8,3.2-3.3,1.2-8.2,3.2-11,4.5-2.7,1.2-7.2,3.2-10,4.4-11.5,5.1-33.6,16.6-44.5,23.3-3.6,2.2-7.4,4.5-8.5,5.1-10.1,5.6-32.3,21.6-49.9,36-21.7,17.8-58.1,55.6-73.8,76.8-2.1,2.9-4.5,6.1-5.3,7-5.9,7.2-25.8,38.9-33.7,53.8-1.9,3.6-4,7.4-4.6,8.5-1.1,1.9-5.7,11.8-10.2,22-5.8,13.1-6.7,15.2-7.9,18.5-1.4,3.7-2.5,6.6-4,10.2-1.2,2.8-6.3,18.5-8.1,24.8-2.2,7.8-3.3,11.4-4,14-.5,1.4-1.3,4.7-2,7.5-.6,2.7-1.5,6.6-2,8.5s-1.4,6.2-2,9.5-1.5,7.8-2,10c-1.9,9.2-4.3,26.3-6,42.7-1.3,12.8-1.3,69.7,0,82.3,3.1,28.2,6.5,47.7,12.6,72,1.8,7.1,3.6,14.1,3.9,15.5.4,1.4,1,3.4,1.5,4.5.4,1.1,2.2,6.5,3.9,12,1.8,5.5,3.6,11,4.1,12.2,1.6,3.6,2.6,6.4,5.3,13.3,6.8,17.8,21.3,47,32.1,65,24,39.7,56.1,78.4,88.6,107,4.7,4.1,8.7,7.7,9,8.1.6.6,15.4,12.4,19.6,15.6,13.2,10,38.1,26.6,47.9,31.9,1.1.6,4.9,2.7,8.5,4.7,10.6,6,40.9,20.7,42.5,20.7.3,0,2.7.9,5.3,2.1,5.9,2.6,7.8,3.4,12.2,4.9,1.9.7,4.4,1.6,5.5,2.1,8.7,3.7,39.3,12.6,55,15.9,3.3.7,7.4,1.6,9,2,1.7.5,6.4,1.4,10.5,2s9.5,1.6,12,2c2.5.5,9.7,1.4,16,2s15.1,1.6,19.4,2.1c10.6,1.2,55.9,1.2,68.8-.1,18.5-1.8,29.2-3.1,35.1-4,16.5-2.8,24.9-4.4,31.7-6,1.9-.5,5.8-1.4,8.5-2.1,2.8-.6,6.4-1.5,8-2,1.7-.5,6.4-1.8,10.5-3,17.8-5.1,34.2-10.9,49.3-17.3,8.9-3.8,12-5.3,26.2-12.3,15.1-7.4,18.2-9.1,31-16.6,49.4-29.1,99.2-73.7,131.9-118.2,3.3-4.4,7.1-9.6,8.6-11.5,5.2-6.9,13.9-20.4,21.3-33,14.6-25,30-58.4,37.3-81,1.3-4.1,2.9-8.3,3.4-9.2.6-1,1-2.7,1-3.8,0-2-.5-2-66.5-2h-66.5l-5.1,10.2c-26.6,53.1-65.6,97.7-113.4,129.8-21.3,14.3-43.3,26-63.7,33.9-1.3.4-3.4,1.3-4.8,1.9-4.8,2-13.6,5-21,7.2-4.1,1.2-8.6,2.6-10,3-1.4.5-4.7,1.3-7.5,2-2.7.6-6.6,1.5-8.5,2s-5.1,1.2-7,1.5-6,1-9,1.5c-27.1,4.8-65.1,5.9-91.5,2.9-27.9-3.2-56.7-10.1-81.5-19.4-4.2-1.6-5.4-2.1-11.2-4.4-5-2-33.6-16.2-37.9-18.8-2.5-1.6-6.7-4.1-9.5-5.7-6-3.6-16.7-10.7-17.4-11.6-.3-.3-2.1-1.7-4-3-15-10.3-42.2-35.4-55.3-51-4-4.7-7.8-9.1-8.5-9.9-4.1-4.3-20.8-28.4-26.7-38.6-18.4-31.4-31.7-65.1-38.6-97.5-.6-3-1.5-6.8-2-8.4s-.9-3.7-.9-4.8c0-1.8,2.7-1.8,82.3-1.6l82.2.3.5,89.5.5,89.5,150.7.3,150.7.2,1.5-2.2c.8-1.3,2.6-5.7,4-9.8s4.3-12.7,6.6-19,5.7-16.2,7.6-22,3.9-11.4,4.4-12.5,1.8-4.9,3-8.5,2.5-7.4,3-8.5,1.1-2.9,1.3-4c.9-3.4,7.7-22.9,8.7-24.6.5-.9.6-2,.3-2.3-.4-.3-49.8-.6-110-.6h-109.3v-66h497.7l1.1-10.3c1.8-15.5,3.2-37.2,3.2-47.7,0-23.4-4.9-71.8-9-89-.5-1.9-1.4-6.2-2.1-9.5-.6-3.3-1.8-8.5-2.6-11.5s-1.9-7.1-2.3-9c-.5-1.9-1.3-5.1-1.9-7-.5-1.9-1.3-4.6-1.6-6-.4-1.4-1.1-3.4-1.5-4.5-.5-1.1-2.5-6.7-4.4-12.5-3.2-9.7-7.8-21.9-11.2-29.8-.8-1.7-2.1-4.9-3-7-8.3-19.1-28.9-56.7-37.1-67.8-.4-.5-1.2-1.7-1.8-2.6-25.3-39.6-73.4-88.8-118-120.5-23.4-16.6-54.7-34.1-82.2-45.9-1.8-.8-4.9-2.1-6.9-3-5.3-2.4-18.3-7-33.4-12-17.5-5.7-17.9-5.8-28.5-8.4-15.5-3.7-24.4-5.6-32-6.9-16.1-2.7-30.8-4.6-48.5-6.1-14.4-1.2-53.5-1.1-66,.1ZM493.48,126.85c17.3,2.3,26.1,3.8,36.3,6.1,9.4,2.1,13.8,3.1,16.2,3.9,1.4.4,4.5,1.3,7,2,8.7,2.4,25.1,8.2,32.3,11.3,9.4,4.2,11.9,5.3,19.2,8.8s12.3,6.2,24,12.9c5.3,3,25.7,16.7,32,21.4,33.8,25.6,65.3,60.7,87,97.1,19.2,31.9,33.8,70.2,40.4,105.2.5,2.7.7,5.1.4,5.5-.2.5-83.6.8-185.4.8h-184.9v-68h89.9c70.9,0,90.1-.3,90.8-1.3.8-1.2,4.4-11.4,8.9-24.7,1.4-4.1,2.9-8.4,3.4-9.5s2.3-6.3,4-11.5,3.5-10.4,4-11.5,2.5-6.7,4.4-12.5,5.4-15.7,7.6-22c4.9-13.5,6-17,6-18.7,0-1.1-34-1.3-170.7-1.1l-170.8.3-.3,90.2-.2,90.3h-82.5c-57.3,0-82.5-.3-82.5-1.1,0-.5.5-3.1,1.1-5.7.5-2.6,1.5-6.7,2-9.2,2-8.7,6.1-23.7,7.9-28.5.4-1.1,1.3-3.8,1.9-6,.7-2.2,1.6-4.9,2.1-6,.4-1.1,1.6-4,2.5-6.5,4.4-11.7,18.7-40.8,25.1-51,7.7-12.2,13.7-21.3,15.9-24.1,1.1-1.4,3.1-4.1,4.5-5.9,29.8-39.9,73.6-76.1,119-98.2,11.4-5.6,18.5-8.7,26.5-11.7,3.3-1.3,6.9-2.7,8-3.1,2.5-1.1,11.1-4,15-5.1,1.7-.4,4.6-1.2,6.5-1.8,8.1-2.2,14.9-3.9,20.5-5,3.3-.7,7.8-1.6,10-2.1,4.7-1,15.2-2.6,25-3.8,10.1-1.3,60.6-1.4,70-.2ZM1243.08,349.65c-1.1,2.2-3,4.3-4.3,4.8s-47.5,1.1-102.8,1.4l-100.5.5-.3,3.6c-.3,3.2.1,3.9,3.2,5.7l3.6,2.1v200.2l-3.6,2.1c-3.1,1.8-3.5,2.5-3.2,5.7l.3,3.6,103.2.5c96.2.5,103.4.6,105.3,2.2,1.1,1,2,2.7,2,3.8,0,1.7.7,2,4,2h4v-59h-3.4c-3,0-3.7.5-5.3,3.7-3.6,7.5,0,7.2-80.9,7.3-39.6,0-72.3-.2-72.5-.4s-.3-12.6-.1-27.6l.3-27.1,45.7.3c38.5.3,46.1.5,48,1.8,2.3,1.6,6.4,9.1,6,11.2-.2.9,1,1.3,3.7,1.3h4v-65l-3.5-.3c-3.3-.3-3.6-.1-4.8,4-3.1,10-2.2,9.8-54.7,9.8-24.3,0-44.4-.2-44.6-.4s-.3-12.4-.1-27l.3-26.6h145.7l3.1,2.6c1.7,1.4,3.1,3.2,3.1,4,0,1,1.2,1.4,4,1.4h4l-.2-27.8-.3-27.7-3.2-.3c-2.8-.3-3.4.1-5.2,3.6ZM1379.68,356.55c-.4.3-.7,2.1-.7,3.9,0,3.4.3,3.6,6.7,4.9,6.7,1.3,6.3-5.1,6.3,102.6s.7,101-8,102.6c-4.4.9-4.5.9-4.5,4.8v4l104.8.3c94.4.2,105,.4,107.2,1.8,1.5.9,2.5,2.6,2.5,3.9,0,1.9.6,2.4,3.5,2.7,2,.2,3.8.2,4-.1.3-.2.5-13.7.5-29.8v-29.4l-3.7.3c-3,.2-3.9.7-4.1,2.5-.4,2.9-5.5,7.1-9.5,7.8-1.8.3-34.9.4-73.7.3l-70.5-.3-.2-84c-.2-66,0-84.5,1-86.5.9-1.8,2.6-2.8,5.7-3.6,4.4-1,4.5-1.2,4.5-5v-3.9l-35.6-.3c-19.5-.1-35.8.1-36.2.5ZM1716.68,356.55c-.4.3-.7,2.2-.7,4,0,2.9.5,3.6,3.5,4.9,1.9.8,4.2,2.6,5.2,4,2.2,3.4,2.5,2.8-18.7,45.9-9.8,19.8-21.8,44.3-26.8,54.5-4.9,10.2-15.8,32.4-24.2,49.4-8.3,17-16.5,33.8-18.1,37.3-3.1,6.2-7.6,11.8-11.4,13.9-1.5.8-2,2.2-2,5v3.9h68l.3-4.2c.3-3.9.1-4.2-2.7-4.8-4.1-.9-5.1-2.9-3.8-7.4,1.5-4.9,17.6-37.4,19.1-38.3,1.5-1.1,99.8-1,101.4.1,1.5.9,1.2.5,11.9,21.4,8.8,17.1,9.6,21,4.8,23.7-2.5,1.4-3,2.3-3,5.6v3.9h72l.3-4.2c.3-4,.2-4.3-3.5-5.8-2.1-.9-5-2.8-6.6-4.3s-10.2-17.7-20.4-38.2c-9.7-19.5-30.1-60.6-45.4-91.3-15.3-30.6-28.4-57.5-29-59.7-1-3.3-.9-4.3.4-6.4.9-1.4,2.9-3.1,4.4-3.8,2.4-1.1,2.8-1.9,2.8-5.3v-4l-38.6-.3c-21.2-.1-38.8.1-39.2.5ZM1759.08,421.55c1.2,2.7,3,6.8,4.1,9.3s3.3,7.2,4.8,10.5,3.8,8.2,5,11c1.2,2.7,3.3,7.4,4.6,10.2,12,26.5,12.4,27.3,12.4,28.3,0,.6-13.4,1-36,1-19.8,0-36-.4-36-.8,0-.5,5.5-11.6,12.1-24.8,6.7-13.1,15.1-29.6,18.6-36.7,3.6-7,6.9-12.7,7.4-12.7.4,0,1.8,2.1,3,4.7ZM1917.68,356.55c-.4.3-.7,2.1-.7,3.8,0,2.7.5,3.5,3.1,4.5,1.7.7,3.5,2.4,4,3.7,1.3,3.5,1.2,195.9-.1,198.4-.6,1-2.4,2.6-4.1,3.4-2.6,1.4-3,2.1-2.7,5.3l.3,3.7h62l.3-4.1c.3-4,.2-4.2-3.2-4.8-6.9-1.3-6.6,2.3-6.6-75.1,0-55,.3-69.5,1.3-69.4s86.3,88.4,122.5,126.9c12,12.9,13.7,16.3,8.6,17.6-2.2.6-2.5,1.1-2.2,4.8l.3,4.1h68l.3-3.7c.3-3.3-.1-3.9-2.8-5.3-1.7-.9-3.5-2.7-4-4.1-1.4-3.6-1.3-193.2,0-197,.7-1.9,2.2-3.4,4.1-4.1,2.7-1.1,3-1.5,2.7-5l-.3-3.8h-63l-.3,3.7c-.3,3.5-.1,3.7,3.8,4.9,7.4,2.2,7-2.1,7,71.6,0,36.4-.4,66.4-.8,66.7-.9.6-7.9-6.5-60.7-61.4-22.5-23.4-46.3-48.1-53-55s-13-14-13.9-15.9c-1.7-3.2-1.7-3.4.4-5.6,1.5-1.6,2-3.3,1.8-5.6l-.3-3.4-35.6-.3c-19.5-.1-35.8.1-36.2.5ZM2215.18,357.05c-1.6,1.6-1.5,5.3.1,6.6.6.6,2.5,1.4,4,1.7,1.5.4,3.2,1.5,3.7,2.5.6,1.2,1,38.4,1,100.3,0,95.3-.1,98.4-1.9,100.1-1,.9-3.2,2.1-4.7,2.5-2.4.6-3,1.4-3.2,4.1-.2,1.9.2,3.6,1,4.1,1.9,1.3,135.7,1.1,148-.1,21.6-2.3,37.6-7.3,52.8-16.8,24.9-15.6,40.7-39.1,47.1-70.2,1.9-8.8,1.9-40.4,0-48.5-4.4-19.6-10.3-32.9-21-47-3.7-4.9-17.1-17.2-22.6-20.7-7-4.6-21.6-11.8-23.8-11.8-.9,0-1.8-.4-2.1-.9s-1.8-1.1-3.3-1.4c-1.6-.3-4.8-1.1-7.3-1.6-15.5-3.7-22.4-4-95-4.1-54.4,0-71.9.3-72.8,1.2ZM2353.98,395.35c17.1,3.2,24.5,6.3,37.1,15.5,11.6,8.4,19.3,20.8,23.5,38,1.6,6.7,1.8,30.6.3,36.4-2.7,10.2-3.5,12.5-6.7,19-4.9,9.9-17.1,22-27.7,27.3-7.8,3.9-9.4,4.5-16.5,6.4-13.9,3.6-17.4,3.9-54.2,3.9h-36.8v-148h36.8c27.5,0,38.6.4,44.2,1.5ZM2584.58,357.05c-1.9,6.3-1.3,7.2,5.5,8.2,2.5.4,5.6,1.6,6.8,2.7l2.1,2v97.9c0,97.7,0,97.9-2.1,99.8-2.1,2-6.1,3.2-10.6,3.2-2.2,0-2.4.3-2.1,4.2l.3,4.3h76v-4c0-3.9-.1-4-4.5-4.8-8.5-1.7-8,1-8-42.7v-38.8l54.3-.5c35.3-.3,55.8-.9,58.7-1.6,2.5-.7,6.8-1.6,9.5-2.2,12-2.6,24.4-8.8,31.9-15.9,13.9-13.3,20.3-36,16.5-58.9-3.7-22.2-13.7-35.6-33.5-44.7-9.2-4.2-16.4-5.9-33.9-7.9-17.7-2-166.3-2.2-166.9-.3ZM2750.98,397.15c5.2,1.5,12.1,4.9,13.7,6.9,2.8,3.4,5.1,8.9,5.8,13.6,1.7,12.4-2.8,22.5-12,27.3-8.2,4.3-18.7,5.1-67,4.7l-43-.3-.3-26.8-.2-26.7h49.2c36.1.1,50.5.4,53.8,1.3ZM2900.68,356.55c-.4.3-.7,2.2-.7,4,0,2.9.5,3.6,3.5,4.9,1.9.8,4.1,2.7,4.9,4.2,1.9,3.7,1.7,4.3-12.1,32.2-12.8,26-32.9,67-49.8,101.5-31.5,64.5-31,63.6-37.5,67-2.5,1.3-3,2.2-3,5s.5,3.6,2.3,4c1.2.3,16.8.4,34.7.3l32.5-.3.3-4.2c.3-3.9.1-4.2-2.7-4.8-4.7-1-5.6-2.8-4.1-7.8,1.9-5.8,17.6-36.8,19.2-37.8,1.6-1.1,99.9-1.1,101.4-.1,1.4.9,17.1,31.1,19,36.6,1.8,4.9,1.1,7.2-2.7,9.2-2.6,1.3-3,2-2.7,5.2l.3,3.7,34.9.3c25.6.2,35.2-.1,36.3-1,2-1.6,1.2-7-1.2-8.3-9.5-4.8-6.1,1.2-56.1-99-25.6-51.3-46.7-94.8-47.1-96.7-.6-4.1,1.9-8.8,4.7-8.8,2.6,0,4.2-2.5,3.8-6.2l-.3-3.3-38.6-.3c-21.2-.1-38.8.1-39.2.5ZM2943.28,422.55c2.5,5.7,5.2,11.7,9.7,21.8,1.2,2.7,3.5,7.7,5,11,2.7,5.9,4.9,10.6,9.6,21.5,1.4,3,3.3,7.2,4.4,9.3,1.1,2.2,2,4.3,2,4.8s-15.2.9-36,.9c-26.1,0-36-.3-36-1.1,0-.7,6.4-13.8,14.2-29.3,7.8-15.4,16-31.8,18.2-36.3,2.3-4.5,4.6-8.2,5.2-8.3.6,0,2.2,2.6,3.7,5.7ZM3092.38,357.25c-.3.8-.4,2.7-.2,4.2.2,2.4.9,2.9,4.2,3.6,2.2.5,4.8,1.6,5.8,2.5,1.7,1.5,1.8,6.5,1.8,100.3s-.1,98.7-1.9,100.4c-1.1,1-3.8,2-6.1,2.3l-4.1.6.3,4.1.3,4.1,34.5.3c19,.1,35.5,0,36.8-.3,2-.5,2.3-1.1,2-4.2-.3-3.6-.4-3.7-5.8-4.8-5-.9-5.6-1.3-6.7-4.5-1.3-3.7-1.9-72.3-.7-75.4.5-1.4,4.2-1.6,30.4-1.6h29.8l2.2,3.5c1.2,2,2.7,4.1,3.4,4.8,1,1.1,11.4,15.7,28.8,40.6,13.7,19.5,18.8,27.3,18.8,28.5,0,1.9-1.9,3.3-6,4.3-2.9.8-3.5,1.4-3.8,3.9-.2,1.8.3,3.6,1.1,4.2,1.1.9,11.5,1.2,39.8,1l38.4-.3v-4c0-3.9-.1-4-4.5-4.8-2.5-.5-5.5-1.8-6.8-3s-7.3-9.4-13.4-18.2-13.2-18.9-15.8-22.5-8.4-11.9-13-18.5-9.8-14.1-11.7-16.8c-1.8-2.6-3.3-5.1-3.3-5.7,0-.5,1.7-1.2,3.8-1.5,6.1-1.1,15.1-4.3,24-8.6,14.8-7.2,25.6-20.5,29.7-36.2,2-7.7,2-27.7,0-35.4-5.8-22.7-21.4-36.6-49-43.8-15-3.9-29.1-4.5-107.3-4.5-64,0-75.3.2-75.8,1.4ZM3247.38,394.95c2.2.6,5.9,1.5,8.1,2.1,5.4,1.5,13.5,6.4,16.4,10,3,3.7,6.1,12.8,6.1,17.7,0,6.3-3.5,14.2-8.3,18.6-11.5,10.5-23.8,12.5-78.2,12.5-27.5,0-37.4-.3-38.3-1.2s-1.2-9-1.2-30.3c0-16.1.3-29.5.7-29.8,1.1-1.2,90.2-.8,94.7.4ZM3368.38,357.25c-.3.8-.4,2.7-.2,4.2.2,2.1,1.1,3,3.7,3.9,6.4,2.1,6-3.4,6.1,102.8,0,107.6.4,101-6.6,102.3-3.4.6-3.5.8-3.2,4.8l.3,4.1h65l.3-4.2c.3-3.8.1-4.3-2.3-4.9-5.4-1.3-5.5-2.2-5.5-35.6v-30.7l4.3-3.4c4.1-3.4,8.1-6.5,23.4-18.2,3.9-3,7.4-5.5,7.7-5.5s6,6.4,12.8,14.2c6.7,7.9,12.7,14.8,13.3,15.4.5.6,8,9.1,16.5,18.9s19.3,22.2,23.8,27.4c9,10.3,11.7,14.4,10.8,16.7-.3.8-1.5,1.4-2.6,1.4-1.9,0-2.1.5-1.8,4.2l.3,4.3h77l.3-4.2q.3-4.1-5.4-6.9c-9.1-4.4-18.1-13.7-51-52.4-2.8-3.3-21.4-24.8-33.4-38.5-19.1-21.9-24-27.8-24-29.1,0-.7,13.6-12.1,30.3-25.3,16.6-13.3,33.4-26.7,37.3-29.9,3.9-3.1,8.9-7.1,11-8.8,16.6-13.4,23-17.8,28.2-19.3,3.9-1.1,4.2-1.4,4.2-4.5,0-2.2-.6-3.6-1.6-4-.9-.3-20.9-.6-44.5-.6h-42.9v4c0,3.1.5,4.2,2.3,5.1,2.5,1.3,3.7,2.8,3.7,4.6,0,2-9.6,11.1-20.9,19.8-9.7,7.5-16.2,12.7-59.6,47-9.7,7.7-18.1,14.1-18.6,14.3-1.3.5-1.2-79.1.2-82.1.6-1.3,2.4-2.8,4-3.4,2.6-1,2.9-1.6,2.9-5.2v-4.1h-32.5c-27.2,0-32.7.2-33.1,1.4ZM1307.48,437.75c-9.2,1.6-17.2,7.8-21.5,16.6-3.4,7.1-3.4,18.9,0,25.9,7.2,14.9,24.4,21.4,39.2,14.8,13-5.7,20.7-19.9,17.9-32.9-1.4-6.5-4.9-13-8.9-16.9-6.3-5.9-17.5-9.1-26.7-7.5Z"/>
  </g>
</svg>