<svg xmlns="http://www.w3.org/2000/svg" xmlns:xlink="http://www.w3.org/1999/xlink" viewBox="0 0 341.8 59.16"><defs><style>.cls-1{fill:url(#linear-gradient);}.cls-2{fill:url(#linear-gradient-2);}.cls-3{fill:url(#linear-gradient-3);}.cls-4{fill:url(#linear-gradient-4);}.cls-5{fill:url(#linear-gradient-5);}.cls-6{fill:url(#linear-gradient-6);}.cls-7{fill:url(#linear-gradient-7);}.cls-8{fill:url(#linear-gradient-8);}.cls-9{fill:url(#linear-gradient-9);}.cls-10{fill:url(#linear-gradient-10);}.cls-11{fill:url(#linear-gradient-11);}.cls-12{fill:url(#linear-gradient-12);}.cls-13{fill:url(#linear-gradient-13);}.cls-14{fill:url(#linear-gradient-14);}.cls-15{fill:url(#linear-gradient-15);}.cls-16{fill:url(#linear-gradient-16);}.cls-17{fill:url(#linear-gradient-17);}.cls-18{fill:url(#linear-gradient-18);}.cls-19{fill:url(#linear-gradient-19);}.cls-20{fill:url(#linear-gradient-20);}.cls-21{fill:url(#linear-gradient-21);}.cls-22{fill:url(#linear-gradient-22);}.cls-23{fill:url(#linear-gradient-23);}.cls-24{fill:url(#linear-gradient-24);}</style><linearGradient id="linear-gradient" x1="-1.76" y1="14.12" x2="341.72" y2="80.12" gradientUnits="userSpaceOnUse"><stop offset="0" stop-color="#ad773a"/><stop offset="0.24" stop-color="#9c6426"/><stop offset="0.32" stop-color="#a1692c"/><stop offset="0.43" stop-color="#af793d"/><stop offset="0.56" stop-color="#c59258"/><stop offset="0.64" stop-color="#d6a56d"/><stop offset="0.76" stop-color="#c39056"/><stop offset="0.87" stop-color="#b58045"/><stop offset="1" stop-color="#d1a36c"/></linearGradient><linearGradient id="linear-gradient-2" x1="-0.36" y1="6.83" x2="343.12" y2="72.82" xlink:href="#linear-gradient"/><linearGradient id="linear-gradient-3" x1="0.82" y1="0.7" x2="344.3" y2="66.7" xlink:href="#linear-gradient"/><linearGradient id="linear-gradient-4" x1="2.1" y1="-5.98" x2="345.58" y2="60.01" xlink:href="#linear-gradient"/><linearGradient id="linear-gradient-5" x1="2.93" y1="-10.31" x2="346.41" y2="55.68" xlink:href="#linear-gradient"/><linearGradient id="linear-gradient-6" x1="3.87" y1="-15.21" x2="347.36" y2="50.78" xlink:href="#linear-gradient"/><linearGradient id="linear-gradient-7" x1="5.27" y1="-22.47" x2="348.75" y2="43.52" xlink:href="#linear-gradient"/><linearGradient id="linear-gradient-8" x1="6.82" y1="-30.57" x2="350.31" y2="35.42" xlink:href="#linear-gradient"/><linearGradient id="linear-gradient-9" x1="7.74" y1="-35.36" x2="351.23" y2="30.64" xlink:href="#linear-gradient"/><linearGradient id="linear-gradient-10" x1="9.13" y1="-42.58" x2="352.61" y2="23.42" xlink:href="#linear-gradient"/><linearGradient id="linear-gradient-11" x1="-8.45" y1="48.93" x2="335.03" y2="114.93" xlink:href="#linear-gradient"/><linearGradient id="linear-gradient-12" x1="-7.59" y1="44.47" x2="335.89" y2="110.46" xlink:href="#linear-gradient"/><linearGradient id="linear-gradient-13" x1="-6.66" y1="39.6" x2="336.82" y2="105.6" xlink:href="#linear-gradient"/><linearGradient id="linear-gradient-14" x1="-5.86" y1="35.44" x2="337.62" y2="101.44" xlink:href="#linear-gradient"/><linearGradient id="linear-gradient-15" x1="-0.94" y1="9.84" x2="342.54" y2="75.83" xlink:href="#linear-gradient"/><linearGradient id="linear-gradient-16" x1="-5.11" y1="31.52" x2="338.38" y2="97.52" xlink:href="#linear-gradient"/><linearGradient id="linear-gradient-17" x1="-4.13" y1="26.44" x2="339.35" y2="92.44" xlink:href="#linear-gradient"/><linearGradient id="linear-gradient-18" x1="-3" y1="20.54" x2="340.49" y2="86.53" xlink:href="#linear-gradient"/><linearGradient id="linear-gradient-19" x1="-1.8" y1="14.32" x2="341.68" y2="80.32" xlink:href="#linear-gradient"/><linearGradient id="linear-gradient-20" x1="-0.17" y1="5.85" x2="343.31" y2="71.84" xlink:href="#linear-gradient"/><linearGradient id="linear-gradient-21" x1="0.61" y1="1.76" x2="344.1" y2="67.75" xlink:href="#linear-gradient"/><linearGradient id="linear-gradient-22" x1="1.33" y1="-1.97" x2="344.81" y2="64.02" xlink:href="#linear-gradient"/><linearGradient id="linear-gradient-23" x1="2.25" y1="-6.75" x2="345.73" y2="59.25" xlink:href="#linear-gradient"/><linearGradient id="linear-gradient-24" x1="2.96" y1="-10.45" x2="346.44" y2="55.55" xlink:href="#linear-gradient"/></defs><title>kensingtons_bi</title><g id="레이어_2" data-name="레이어 2"><g id="Layer_1" data-name="Layer 1"><path class="cls-1" d="M21.6,1.53v.76c.93.17,1.39.49,1.39,1,0,.31-.3.71-.95,1.22l-13.4,11V4A1.7,1.7,0,0,1,9,2.89a2.31,2.31,0,0,1,1.2-.6V1.53H0v.76a2.61,2.61,0,0,1,1.21.61A1.71,1.71,0,0,1,1.53,4V31.6a1.69,1.69,0,0,1-.32,1.11A2.44,2.44,0,0,1,0,33.34v.76H10.18v-.76A2.4,2.4,0,0,1,9,32.73a1.66,1.66,0,0,1-.35-1.13V22.86l4.91-4,9.6,11.78a5.22,5.22,0,0,1,1.14,1.76c0,.42-.42.73-1.27.9v.76H35.77v-.76a4.2,4.2,0,0,1-2-.81,22.44,22.44,0,0,1-2.51-2.7L18.72,14.72l11.09-8.9L31.66,4.3c1.15-.95,1.83-1.49,2.06-1.63a4,4,0,0,1,1.2-.38V1.53Z"/><path class="cls-2" d="M67.83,0a2.4,2.4,0,0,1-.62,1.18,1.58,1.58,0,0,1-1.1.35h-29v.76a2.52,2.52,0,0,1,1.2.61A1.69,1.69,0,0,1,38.62,4V31.6a1.64,1.64,0,0,1-.33,1.11,2.36,2.36,0,0,1-1.2.63v.76h29.6a1.66,1.66,0,0,1,1.1.33,2.57,2.57,0,0,1,.61,1.2h.77V27.21H68.4a2.53,2.53,0,0,1-.61,1.19,1.61,1.61,0,0,1-1.1.33H45.74V19.81H61.35a1.57,1.57,0,0,1,1.09.34,2.45,2.45,0,0,1,.63,1.18h.76V13.09h-.76a2.3,2.3,0,0,1-.63,1.2,1.57,1.57,0,0,1-1.09.34H45.74V6.89H66.11a1.58,1.58,0,0,1,1.1.35,2.36,2.36,0,0,1,.62,1.17h.77V0Z"/><path class="cls-3" d="M98.68,1.53v.76a2.35,2.35,0,0,1,1.17.61A1.51,1.51,0,0,1,100.19,4V23.35l-18-18.7a1.93,1.93,0,0,1-.68-1.26c0-.56.34-.93,1-1.1V1.53H71.51v.76a2.57,2.57,0,0,1,1.2.61A1.71,1.71,0,0,1,73,4V31.6a1.69,1.69,0,0,1-.33,1.11,2.4,2.4,0,0,1-1.2.63v.76h9.57v-.76a2.4,2.4,0,0,1-1.2-.63,1.64,1.64,0,0,1-.33-1.11V11.79L97.81,30.64C98.59,31.43,99,32,99,32.31c0,.54-.35.88-1,1v.76h10.27v-.76a2.4,2.4,0,0,1-1.2-.63,1.64,1.64,0,0,1-.34-1.11V4a1.65,1.65,0,0,1,.34-1.11,2.57,2.57,0,0,1,1.2-.61V1.53Z"/><path class="cls-4" d="M113.77,4.25a9.16,9.16,0,0,0-2.89,7A8.86,8.86,0,0,0,112,15.74,8.06,8.06,0,0,0,115.5,19a14,14,0,0,0,3.11,1.14c1,.24,3.1.48,5.61.73l3.75.4a26.24,26.24,0,0,1,5.28,1A2.46,2.46,0,0,1,135,24.64a3.46,3.46,0,0,1-.75,2.1,5.5,5.5,0,0,1-2,1.54,14.09,14.09,0,0,1-5.78,1.09,23,23,0,0,1-6.56-1A13.43,13.43,0,0,1,115,25.91a2.7,2.7,0,0,1-1.06-2v-.31l-.7-.34-3.6,8.16.72.37a1.92,1.92,0,0,1,1-.55,7,7,0,0,1,1.63.64A30.17,30.17,0,0,0,126.28,35a28,28,0,0,0,7.17-.89,12.25,12.25,0,0,0,6.35-3.67,9.57,9.57,0,0,0,2.26-6.25,9.16,9.16,0,0,0-1-4.15,8.25,8.25,0,0,0-2.61-3.13,12.83,12.83,0,0,0-3.74-1.79,36.26,36.26,0,0,0-5.79-1l-3.81-.4a40.77,40.77,0,0,1-5.3-.72,2.81,2.81,0,0,1-2.25-2.55,3.06,3.06,0,0,1,.88-2.11,5.45,5.45,0,0,1,2.33-1.47,16.89,16.89,0,0,1,4.82-.64,18.21,18.21,0,0,1,10.44,3c.94.62,1.41,1.23,1.41,1.77,0,.1,0,.25,0,.4l.67.39,4-7.84-.69-.35a2,2,0,0,1-1.18.56,7.43,7.43,0,0,1-1.74-.56,45.83,45.83,0,0,0-6.88-2.39,28.19,28.19,0,0,0-6.19-.65c-5.07,0-9.14,1.22-11.67,3.64"/><path class="cls-5" d="M144.23,1.53v.76a2.52,2.52,0,0,1,1.2.61A1.71,1.71,0,0,1,145.76,4V31.6a1.69,1.69,0,0,1-.33,1.11,2.36,2.36,0,0,1-1.2.63v.76H154.4v-.76a2.28,2.28,0,0,1-1.17-.61,1.61,1.61,0,0,1-.36-1.13V4a1.7,1.7,0,0,1,.34-1.12,2.36,2.36,0,0,1,1.19-.6V1.53Z"/><path class="cls-6" d="M184.56,1.53v.76a2.52,2.52,0,0,1,1.2.61A1.71,1.71,0,0,1,186.09,4V23.35l-18-18.7a2,2,0,0,1-.66-1.26c0-.56.34-.93,1-1.1V1.53H157.39v.76a2.48,2.48,0,0,1,1.19.61A1.65,1.65,0,0,1,158.92,4V31.6a1.64,1.64,0,0,1-.34,1.11,2.32,2.32,0,0,1-1.19.63v.76H167v-.76a2.28,2.28,0,0,1-1.19-.63,1.59,1.59,0,0,1-.33-1.11V11.79L183.7,30.64c.78.79,1.17,1.36,1.17,1.67,0,.54-.34.88-1,1v.76h10.27v-.76a2.36,2.36,0,0,1-1.2-.63,1.64,1.64,0,0,1-.33-1.11V4a1.65,1.65,0,0,1,.33-1.11,2.52,2.52,0,0,1,1.2-.61V1.53Z"/><path class="cls-7" d="M201.29,5.1a15.62,15.62,0,0,0-5.71,12.7c0,5.71,2.15,10.18,6.41,13.38,3.38,2.56,7.49,3.83,12.86,3.83,5.93,0,11.67-1.8,18-5.4V29a2.32,2.32,0,0,1-1.23-.64,1.64,1.64,0,0,1-.34-1.14V18.85a1.62,1.62,0,0,1,.35-1.14,2.52,2.52,0,0,1,1.22-.63v-.77H216a1.73,1.73,0,0,1-1.13-.34,2.38,2.38,0,0,1-.62-1.23h-.78v7.74h.78a2.6,2.6,0,0,1,.62-1.22,1.62,1.62,0,0,1,1.13-.33h9.32V27a16.22,16.22,0,0,1-4.54,1.74,21.24,21.24,0,0,1-5.15.64,12.74,12.74,0,0,1-8.83-3,10.64,10.64,0,0,1-3.79-8.5,10.94,10.94,0,0,1,3.88-8.73c3.82-3.25,8.89-3.39,13.51-2.13A12.3,12.3,0,0,1,224.64,9a3.23,3.23,0,0,1,.88.85,2.6,2.6,0,0,1,.21,1.15l.72.37,3.9-8L229.67,3a2.07,2.07,0,0,1-1.19.57,7.48,7.48,0,0,1-2.36-.66,37.34,37.34,0,0,0-5.64-1.77,23.79,23.79,0,0,0-5.11-.52c-6,0-10.49,1.48-14.08,4.49"/><path class="cls-8" d="M264.68,0a2.43,2.43,0,0,1-.63,1.2,1.65,1.65,0,0,1-1.11.33H235.07A1.67,1.67,0,0,1,234,1.2a2.81,2.81,0,0,1-.64-1.2h-.76V8.41h.76A2.35,2.35,0,0,1,234,7.22a1.65,1.65,0,0,1,1.09-.33h10.37V31.6a1.54,1.54,0,0,1-.33,1.11,2.36,2.36,0,0,1-1.19.63v.76H254.1v-.76a2.32,2.32,0,0,1-1.19-.63,1.59,1.59,0,0,1-.34-1.11V6.89h10.37a1.65,1.65,0,0,1,1.11.33,2.35,2.35,0,0,1,.63,1.19h.76V0Z"/><path class="cls-9" d="M276.52,26.54a11.13,11.13,0,0,1-3.75-8.72,11.19,11.19,0,0,1,3.75-8.74,11.58,11.58,0,0,1,7.93-2.83,12,12,0,0,1,8,2.83A11.13,11.13,0,0,1,296.2,18a11.83,11.83,0,0,1-.88,4.47,10.89,10.89,0,0,1-2.88,4.11,11.37,11.37,0,0,1-7.94,2.83,11.53,11.53,0,0,1-8-2.83M267.94,8.68a16.93,16.93,0,0,0-2.57,9.12,17.25,17.25,0,0,0,1.25,6.5,16.31,16.31,0,0,0,4.14,6Q275.84,35,284.48,35,296,35,301,26.94A16.68,16.68,0,0,0,303.59,18,16.4,16.4,0,0,0,298.2,5.31Q293.13.62,284.42.61q-11.61.16-16.48,8.07"/><path class="cls-10" d="M332.22,1.53v.76a2.48,2.48,0,0,1,1.19.61A1.6,1.6,0,0,1,333.74,4V23.35l-18-18.7a2,2,0,0,1-.67-1.26c0-.56.34-.93,1-1.1V1.53H305.06v.76a2.58,2.58,0,0,1,1.19.61A1.65,1.65,0,0,1,306.58,4V31.6a1.64,1.64,0,0,1-.33,1.11,2.41,2.41,0,0,1-1.19.63v.76h9.57v-.76a2.24,2.24,0,0,1-1.18-.63,1.54,1.54,0,0,1-.34-1.11V11.79l18.25,18.85c.77.79,1.17,1.36,1.17,1.67,0,.54-.34.88-1,1v.76H341.8v-.76a2.35,2.35,0,0,1-1.21-.63,1.69,1.69,0,0,1-.32-1.11V4a1.71,1.71,0,0,1,.32-1.11,2.51,2.51,0,0,1,1.21-.61V1.53Z"/><polygon class="cls-11" points="13.92 51.12 8.73 51.12 8.73 46.64 5.82 46.64 5.82 58.83 8.73 58.83 8.73 53.85 13.92 53.85 13.92 58.83 16.82 58.83 16.82 46.64 13.92 46.64 13.92 51.12"/><path class="cls-12" d="M35.43,46.31a6,6,0,0,0-4.54,1.76A6.55,6.55,0,0,0,29.2,52.8a6.36,6.36,0,0,0,1.69,4.64,6.11,6.11,0,0,0,4.54,1.72A6.12,6.12,0,0,0,40,57.44a6.36,6.36,0,0,0,1.69-4.64A6.57,6.57,0,0,0,40,48.07a6,6,0,0,0-4.56-1.76m2.45,9.43a3.37,3.37,0,0,1-4.89,0,4.49,4.49,0,0,1-.89-3,4.66,4.66,0,0,1,.89-3,3.31,3.31,0,0,1,4.89,0,4.66,4.66,0,0,1,.89,3,4.49,4.49,0,0,1-.89,3"/><polygon class="cls-13" points="54.49 49.01 58.33 49.01 58.33 58.83 61.23 58.83 61.23 49.01 65.08 49.01 65.08 46.64 54.49 46.64 54.49 49.01"/><polygon class="cls-14" points="79.17 58.83 89.08 58.83 89.08 56.46 82.08 56.46 82.08 53.88 88.76 53.88 88.76 51.58 82.08 51.58 82.08 49.01 89.08 49.01 89.08 46.64 79.17 46.64 79.17 58.83"/><polygon class="cls-15" points="217.36 58.83 227.27 58.83 227.27 56.46 220.27 56.46 220.27 53.88 226.95 53.88 226.95 51.58 220.27 51.58 220.27 49.01 227.27 49.01 227.27 46.64 217.36 46.64 217.36 58.83"/><polygon class="cls-16" points="106.76 46.64 103.86 46.64 103.86 58.83 113.09 58.83 113.09 56.46 106.76 56.46 106.76 46.64"/><path class="cls-17" d="M133.42,51.48a13.36,13.36,0,0,1-2.47-.69.76.76,0,0,1-.52-.72,1.21,1.21,0,0,1,.51-1.06,2.57,2.57,0,0,1,1.52-.39,3.15,3.15,0,0,1,1.82.47,1.64,1.64,0,0,1,.74,1.27v.11h2.84v-.14a4,4,0,0,0-1.54-2.93,5.6,5.6,0,0,0-3.56-1.09,6,6,0,0,0-3.7,1,3.41,3.41,0,0,0-1.39,2.85,2.75,2.75,0,0,0,1.07,2.39A11.94,11.94,0,0,0,132.83,54a7.49,7.49,0,0,1,2.11.65.93.93,0,0,1,.45.88,1.05,1.05,0,0,1-.64,1,4.11,4.11,0,0,1-1.93.37,3,3,0,0,1-1.86-.49,1.66,1.66,0,0,1-.68-1.37v-.11h-2.81V55a4,4,0,0,0,1.5,3.07,6.22,6.22,0,0,0,3.85,1.08,6.74,6.74,0,0,0,3.89-1,3.23,3.23,0,0,0,1.46-2.78,3.05,3.05,0,0,0-1-2.52,9.64,9.64,0,0,0-3.77-1.37"/><path class="cls-18" d="M170.91,55a6.93,6.93,0,0,0,.77-2.49v-.14h-2.43v.11a5,5,0,0,1-.5,1.67l-.1.16L167,52.42a5.62,5.62,0,0,0,1.33-1,2.69,2.69,0,0,0,.73-1.82,2.77,2.77,0,0,0-.87-2.15,3.37,3.37,0,0,0-2.34-.79,3.72,3.72,0,0,0-2.52.81,2.75,2.75,0,0,0-.95,2.19,3,3,0,0,0,.29,1.19,4.93,4.93,0,0,0,.74,1.14,7.21,7.21,0,0,0-1.76,1.33,3.35,3.35,0,0,0-.87,2.31,3.13,3.13,0,0,0,1.14,2.55,4.58,4.58,0,0,0,3,.94,6,6,0,0,0,2.34-.39,6.11,6.11,0,0,0,1.28-.8l.78.88,0,0h3.27l-2.39-2.7a6.91,6.91,0,0,0,.67-1.12m-5.81-6.14a1,1,0,0,1,.69-.22,1,1,0,0,1,.68.23,1,1,0,0,1,.24.69,1.36,1.36,0,0,1-.5.93,5.9,5.9,0,0,1-.52.41l-.44-.5A1.58,1.58,0,0,1,165,50a1.25,1.25,0,0,1-.1-.48.77.77,0,0,1,.23-.6m1.27,7.78a2.32,2.32,0,0,1-1.1.29,2,2,0,0,1-1.31-.38,1.32,1.32,0,0,1-.46-1.07,1.79,1.79,0,0,1,.63-1.3,5.55,5.55,0,0,1,.69-.54l1.53,1.76.69.79a4.62,4.62,0,0,1-.67.45"/><path class="cls-19" d="M205,57.94a2,2,0,0,1-.12-.78l-.06-2a2.38,2.38,0,0,0-1.2-2.15l-.16-.08c.17-.08.34-.17.49-.26a2.93,2.93,0,0,0,1.29-2.63,3.12,3.12,0,0,0-1.15-2.5,4.6,4.6,0,0,0-3-.94h-6.53V58.83h2.9V54.11H200a2.87,2.87,0,0,1,1.55.32,1.21,1.21,0,0,1,.45,1l0,1.11a9.52,9.52,0,0,0,.09,1.34,2.42,2.42,0,0,0,.2.84l0,.06h3.13V58.3l-.07,0a.64.64,0,0,1-.37-.33m-3.13-6.46a2.37,2.37,0,0,1-1.47.38h-3V48.94h3.06a2.16,2.16,0,0,1,1.39.37,1.29,1.29,0,0,1,.45,1.08,1.25,1.25,0,0,1-.47,1.09"/><path class="cls-20" d="M244.56,51.48a13.36,13.36,0,0,1-2.47-.69.77.77,0,0,1-.52-.72,1.23,1.23,0,0,1,.51-1.06,2.56,2.56,0,0,1,1.51-.39,3.17,3.17,0,0,1,1.83.47,1.65,1.65,0,0,1,.74,1.27v.11H249v-.14a4,4,0,0,0-1.53-2.93,5.59,5.59,0,0,0-3.55-1.09,6,6,0,0,0-3.71,1,3.41,3.41,0,0,0-1.39,2.85,2.76,2.76,0,0,0,1.07,2.39A11.94,11.94,0,0,0,244,54a7.49,7.49,0,0,1,2.11.65.93.93,0,0,1,.46.88,1,1,0,0,1-.65,1,4.11,4.11,0,0,1-1.93.37,3.07,3.07,0,0,1-1.86-.49,1.68,1.68,0,0,1-.68-1.37v-.11H238.6V55a3.92,3.92,0,0,0,1.5,3.07A6.2,6.2,0,0,0,244,59.16a6.72,6.72,0,0,0,3.89-1,3.22,3.22,0,0,0,1.45-2.78,3,3,0,0,0-1-2.52,9.64,9.64,0,0,0-3.77-1.37"/><path class="cls-21" d="M265.94,46.31a6,6,0,0,0-4.54,1.76,6.55,6.55,0,0,0-1.69,4.73,6.36,6.36,0,0,0,1.69,4.64,6.88,6.88,0,0,0,9.1,0,6.38,6.38,0,0,0,1.69-4.64,6.57,6.57,0,0,0-1.69-4.73,6,6,0,0,0-4.56-1.76m2.45,9.43a3.38,3.38,0,0,1-4.9,0,4.54,4.54,0,0,1-.88-3,4.66,4.66,0,0,1,.89-3,2.94,2.94,0,0,1,2.44-1.08,3,3,0,0,1,2.45,1.08,4.66,4.66,0,0,1,.89,3,4.49,4.49,0,0,1-.89,3"/><path class="cls-22" d="M292.94,57.94a2.13,2.13,0,0,1-.12-.78l-.06-2a2.36,2.36,0,0,0-1.2-2.15L291.4,53c.17-.08.34-.17.49-.26a2.92,2.92,0,0,0,1.29-2.63,3.08,3.08,0,0,0-1.16-2.5,4.53,4.53,0,0,0-3-.94h-6.54V58.83h2.9V54.11h2.53a2.84,2.84,0,0,1,1.55.32,1.18,1.18,0,0,1,.45,1l0,1.11a9.73,9.73,0,0,0,.09,1.34,2.45,2.45,0,0,0,.2.84l0,.06h3.12V58.3l-.07,0a.64.64,0,0,1-.37-.33m-3.13-6.46a2.37,2.37,0,0,1-1.47.38h-3V48.94h3.07a2.18,2.18,0,0,1,1.39.37,1.31,1.31,0,0,1,.44,1.08,1.27,1.27,0,0,1-.47,1.09"/><polygon class="cls-23" points="304.62 49.01 308.47 49.01 308.47 58.83 311.37 58.83 311.37 49.01 315.21 49.01 315.21 46.64 304.62 46.64 304.62 49.01"/><path class="cls-24" d="M336.27,52.85a9.64,9.64,0,0,0-3.76-1.37A14,14,0,0,1,330,50.8a.79.79,0,0,1-.53-.73A1.22,1.22,0,0,1,330,49a2.51,2.51,0,0,1,1.51-.39,3.13,3.13,0,0,1,1.82.47,1.61,1.61,0,0,1,.74,1.27v.11H337v-.14a4,4,0,0,0-1.54-2.93,5.59,5.59,0,0,0-3.55-1.09,6,6,0,0,0-3.7,1,3.41,3.41,0,0,0-1.39,2.85,2.77,2.77,0,0,0,1.06,2.39,11.93,11.93,0,0,0,4.1,1.39,7.74,7.74,0,0,1,2.11.65,1,1,0,0,1,.45.88,1,1,0,0,1-.65,1,4.09,4.09,0,0,1-1.93.37,3,3,0,0,1-1.85-.49,1.7,1.7,0,0,1-.69-1.37v-.11h-2.81V55a4,4,0,0,0,1.5,3.07,6.22,6.22,0,0,0,3.85,1.08,6.72,6.72,0,0,0,3.89-1,3.23,3.23,0,0,0,1.46-2.78,3.05,3.05,0,0,0-1-2.52"/></g></g></svg>