<svg xmlns="http://www.w3.org/2000/svg" viewBox="0 0 938 804" width="938" height="804">
  <defs>
    <linearGradient id="kxGrad" gradientUnits="userSpaceOnUse" x1="60" y1="744" x2="878" y2="60">
      <stop offset="0" stop-color="#073F94"/>
      <stop offset="1" stop-color="#A02CEA"/>
    </linearGradient>
  </defs>
  <path d="M675.40 789.94 C617.35 785.46 558.63 763.83 509.29 728.75 C455.64 690.58 409.84 640.28 342.01 545.00 C313.48 504.91 297.85 481.66 298.30 479.95 C298.54 479.06 306.78 466.81 316.61 452.73 C333.81 428.12 334.56 427.22 336.00 429.28 C336.82 430.46 346.63 444.86 357.79 461.28 C455.56 605.15 509.84 664.24 576.00 698.84 C601.64 712.26 631.00 722.56 656.66 727.16 C673.87 730.24 713.19 730.55 727.50 727.72 C779.16 717.48 821.64 686.45 843.49 643.00 C849.89 630.27 855.20 614.98 857.95 601.34 C861.45 584.01 862.05 585.35 847.71 578.66 C831.90 571.28 820.86 564.73 807.36 554.73 C778.09 533.03 755.91 510.90 722.53 470.08 C710.76 455.67 707.43 452.17 706.51 453.20 C705.86 453.91 699.32 462.38 691.96 472.00 C664.61 507.79 628.91 551.72 609.10 574.00 C583.74 602.51 550.53 637.00 548.44 637.00 C545.60 637.00 503.81 597.92 505.14 596.50 C505.34 596.29 513.20 588.10 522.61 578.31 C561.84 537.48 597.27 495.75 645.98 433.00 C653.88 422.82 662.29 412.10 664.67 409.16 C667.05 406.22 669.00 403.45 669.00 403.00 C669.00 401.09 602.88 319.00 577.98 290.00 C548.19 255.32 532.12 237.98 500.57 206.49 C460.13 166.13 438.38 147.55 407.00 126.55 C374.61 104.87 342.68 90.12 309.64 81.57 C291.14 76.79 281.64 75.63 260.50 75.60 C234.86 75.55 220.59 78.11 196.00 87.16 C156.62 101.65 121.24 132.21 101.26 169.00 C90.75 188.34 82.10 216.37 79.99 237.91 C79.33 244.59 78.87 306.03 78.73 404.50 C78.52 549.73 78.62 561.36 80.29 573.00 C82.45 588.12 86.00 602.92 90.67 616.34 C111.79 677.04 170.71 720.69 240.16 727.11 C286.06 731.35 346.68 714.67 395.39 684.39 L402.27 680.11 423.39 701.40 C435.00 713.10 444.67 723.07 444.87 723.54 C445.47 724.91 417.31 742.03 399.17 751.31 C352.08 775.41 302.76 788.00 255.47 788.00 C171.29 788.00 95.04 746.59 52.37 677.72 C31.77 644.47 20.60 606.94 18.01 562.32 C16.67 539.31 16.71 258.16 18.05 242.50 C23.40 180.05 44.58 131.58 84.69 89.98 C120.84 52.48 163.94 29.09 216.45 18.50 C263.26 9.05 322.71 16.50 372.00 37.97 C437.20 66.38 493.91 110.19 572.06 192.50 C606.75 229.05 658.67 290.51 696.00 339.23 C701.77 346.76 706.95 352.94 707.50 352.96 C708.05 352.98 711.42 349.29 715.00 344.77 C750.70 299.56 785.57 265.07 816.00 244.83 C825.97 238.20 846.56 227.30 855.75 223.79 C859.87 222.21 860.00 222.03 860.00 217.69 C860.00 200.07 848.63 169.19 833.95 146.97 C825.73 134.53 806.86 115.69 794.04 107.13 C769.37 90.65 741.50 80.98 710.00 77.98 C690.71 76.13 669.54 78.24 643.31 84.59 C615.00 91.46 588.48 102.28 562.35 117.63 C557.32 120.58 552.80 123.00 552.32 123.00 C551.84 123.00 548.53 120.03 544.97 116.40 C541.41 112.77 531.14 103.45 522.14 95.70 C502.99 79.19 502.72 82.51 524.29 69.62 C542.71 58.62 575.80 42.51 593.30 36.02 C617.53 27.04 644.99 20.63 670.84 17.93 C689.18 16.01 722.44 17.19 739.00 20.36 C786.59 29.45 824.66 48.61 857.18 79.82 C898.42 119.41 923.00 177.93 923.00 236.57 C923.00 250.56 921.10 256.58 914.76 262.63 C908.82 268.30 905.24 270.19 891.50 274.96 C845.57 290.91 815.77 315.89 761.08 384.32 C753.25 394.12 747.05 402.67 747.30 403.32 C748.00 405.10 772.70 435.82 784.72 449.87 C805.94 474.65 830.24 497.22 849.82 510.32 C860.88 517.72 875.22 525.00 889.66 530.54 C907.88 537.53 910.75 539.03 915.39 543.99 C922.63 551.72 924.59 560.59 923.02 578.50 C918.06 635.41 897.57 683.31 861.87 721.47 C854.11 729.77 839.56 742.06 827.50 750.50 C785.43 779.94 730.49 794.18 675.40 789.94 Z M184.27 629.96 C174.64 628.03 166.52 621.68 161.98 612.50 L159.50 607.50 159.50 411.50 L159.50 215.50 162.31 209.79 C169.83 194.46 188.10 188.34 203.59 195.97 C211.66 199.94 216.45 205.48 219.02 213.81 C220.94 220.00 221.00 223.44 221.00 319.61 C221.00 374.27 221.34 418.99 221.75 418.97 C222.16 418.96 231.95 405.15 243.50 388.28 C308.67 293.11 337.24 254.37 374.91 210.04 C387.23 195.53 408.83 172.00 409.82 172.00 C410.52 172.00 441.72 198.25 450.46 206.19 L455.42 210.70 442.96 224.52 C388.84 284.54 336.28 356.91 241.44 502.00 L221.50 532.50 221.00 570.00 L220.50 607.50 217.71 613.18 C211.76 625.30 197.29 632.56 184.27 629.96 Z M474.71 494.98 C454.64 491.80 431.55 479.48 418.94 465.22 C409.34 454.37 400.84 438.78 397.56 426.00 C394.98 416.01 394.44 397.36 396.40 386.16 C405.70 332.91 460.16 298.61 513.35 312.50 C540.28 319.53 564.43 340.01 574.95 364.73 C581.13 379.25 582.47 386.05 582.47 403.00 C582.47 420.66 580.90 428.01 574.04 442.66 C569.24 452.90 565.46 458.41 557.36 467.00 C540.74 484.62 517.87 494.59 492.00 495.50 C485.68 495.72 477.90 495.48 474.71 494.98 Z M501.97 442.42 C516.50 438.10 527.48 425.01 530.16 408.82 C533.07 391.29 523.35 372.68 507.15 364.76 C500.87 361.68 499.89 361.50 489.45 361.50 C478.71 361.50 478.19 361.60 470.86 365.23 C445.09 377.96 439.19 410.26 458.80 431.22 C463.92 436.69 469.87 440.54 476.29 442.55 C482.19 444.39 495.55 444.32 501.97 442.42 Z" fill="url(#kxGrad)" fill-rule="evenodd"/>
</svg>