<?xml version="1.0" encoding="utf-8"?>
<!-- Generator: Adobe Illustrator 23.0.3, SVG Export Plug-In . SVG Version: 6.00 Build 0)  -->
<svg version="1.1" id="레이어_1" xmlns="http://www.w3.org/2000/svg" xmlns:xlink="http://www.w3.org/1999/xlink" x="0px"
	 y="0px" viewBox="0 0 137.4 34.6" style="enable-background:new 0 0 137.4 34.6;" xml:space="preserve">
<style type="text/css">
	.st0{fill:#002D74;}
</style>
<g>
	<path class="st0" d="M13.2,22H7c0.4,0.5,0.7,1.8,0.7,2.8v6.1c0,2,0.7,2.6,2.8,2.6h19.1v-2.2H13.2V22z"/>
	<path class="st0" d="M19.8,2.9h-7.2V0h-6c0.4,0.4,0.6,1.5,0.6,2.3v0.6H0v2.2h4.7c-2.1,1.4-3.5,3.7-3.5,6.6c0.1,4.8,4,8.1,8.7,8.1
		c4.7,0,8.7-3.3,8.7-8.1c0-2.8-1.4-5.1-3.6-6.6h4.8V2.9z M9.9,17.5c-2.4,0-4-2.4-4-5.8c0-3.4,1.6-5.8,4-5.8c2.4,0,4,2.4,4,5.8
		C13.9,15.1,12.3,17.5,9.9,17.5z"/>
	<path class="st0" d="M28.4,0.7h-6.1C22.8,1.2,23,2.5,23,3.6v20.4h3.1c1.5,0,2.3-0.7,2.3-2.4V10.7h5.3V8.5h-5.3V0.7z"/>
	<path class="st0" d="M100.1,0.7h-5.8c0.6,0.5,0.8,1.8,0.8,2.8v16.4h2.8c1.5,0,2.3-0.7,2.3-2.4v-6.8h4.1V8.5h-4.1V0.7z"/>
	<path class="st0" d="M54.7,4.1c0.1-1.2-0.6-2.1-1.8-2.1H38.5v2.2h10.7c0,7.8-4.7,12.7-12.5,14l1,1.5C47.8,18.5,53.9,13.9,54.7,4.1"
		/>
	<path class="st0" d="M65.7,0.8h-6.2c0.6,0.5,1,1.8,1,2.8V6h-5.6v2.2h5.6v3.2h-5.8v2.2h5.8v5c-1.4-0.6-2.9-0.9-4.5-0.9
		c-5.2,0-9.6,3.5-9.7,8.5c0.1,5,4.5,8.5,9.7,8.5c5.3,0,9.7-3.5,9.8-8.5c0-0.1,0-0.2,0-0.3l0,0V0.8z M56,32.3c-2.8,0-4.7-2.5-4.7-6.2
		c0-3.6,1.9-6.2,4.7-6.2c2.8,0,4.8,2.5,4.8,6.2C60.7,29.8,58.8,32.3,56,32.3z"/>
	<path class="st0" d="M131.5,0.7c0.6,0.5,0.8,1.8,0.8,2.8v5h-5.1v2.2h5.1v10h-16.3c0.4,0.5,0.7,1.8,0.7,2.8v7.3c0,2,0.7,2.6,2.8,2.6
		h18V0.7H131.5z M132.2,31.2h-10.4v-8.3h10.4V31.2z"/>
	<path class="st0" d="M125.2,2.1h-15.4v2.2h11.7c0,2.1-0.4,4-1.1,5.7h-9.9v2.2h8.7c-2.3,3.5-6.3,5.8-11.3,7.4l1,1.5
		c10.2-1.8,18-7.8,18-16.9C127.1,3,126.5,2.1,125.2,2.1z"/>
	<path class="st0" d="M80.1,16V4.3h10.9V2.1H74.2c0.4,0.5,0.7,1.8,0.7,2.8v10.7c0,2,0.7,2.6,2.8,2.6h14.7V16H80.1z"/>
	<path class="st0" d="M92.5,22.3v-1c0-0.8-0.6-1.4-1.8-1.4h-4.1c0,0,0.5,0.4,0.5,1.4c0,0.3,0,0.5,0,0.9c0,5-5.4,9.3-10.2,10.7l1,1
		c4.8-0.6,9.3-3.2,12-6.1c2.7,2.9,7.2,5.5,12,6.1l1-1C97.9,31.6,92.5,27.3,92.5,22.3z"/>
</g>
</svg>
