<svg xmlns="http://www.w3.org/2000/svg" viewBox="0 0 333.07 99.18"><defs><style>.cls-1{fill:#575756;}.cls-2{fill:#003763;}.cls-3{fill:#e4022d;}</style></defs><title>mog_logo_grey.svg</title><g id="레이어_2" data-name="레이어 2"><g id="Layer_1" data-name="Layer 1"><path class="cls-1" d="M141.87,65.8V53.12h4.94V65.8h18v4.45H127.26V65.8Zm14.84-7.18V39H130.28V34.48h31.51V58.62Z"/><path class="cls-1" d="M177.19,51.43v-3.8h4.67v3.8h11.26v-3.8h4.67v3.8h8.48v4.3H168.72v-4.3Zm20,14.79a7.85,7.85,0,0,1-.78,3.45,8.78,8.78,0,0,1-2.11,2.82,9.78,9.78,0,0,1-3,2,9.61,9.61,0,0,1-3.73.73,9.76,9.76,0,0,1-3.76-.73,10.24,10.24,0,0,1-3.11-2,9.09,9.09,0,0,1-2.06-2.82,8,8,0,0,1,0-6.91A9.37,9.37,0,0,1,183.78,58a10.13,10.13,0,0,1,3.76-.71,10,10,0,0,1,3.73.71,9.88,9.88,0,0,1,5.15,4.81A7.89,7.89,0,0,1,197.2,66.22Zm-.09-27a7.73,7.73,0,0,1-.78,3.43,9.78,9.78,0,0,1-8.79,5.49,9.8,9.8,0,0,1-8.84-5.49,7.73,7.73,0,0,1-.78-3.43,7.82,7.82,0,0,1,.78-3.42,9.68,9.68,0,0,1,5.11-4.78,9.54,9.54,0,0,1,3.73-.73,9.44,9.44,0,0,1,3.71.73,9.63,9.63,0,0,1,3,1.92,9.52,9.52,0,0,1,2.11,2.86A7.82,7.82,0,0,1,197.11,39.25Zm-4.86,26.88a4.38,4.38,0,0,0-1.39-3.28,4.68,4.68,0,0,0-3.37-1.35,4.58,4.58,0,0,0-3.34,1.35,4.4,4.4,0,0,0-1.37,3.28,4.46,4.46,0,0,0,1.37,3.29,4.53,4.53,0,0,0,3.34,1.38,4.63,4.63,0,0,0,3.37-1.38A4.44,4.44,0,0,0,192.25,66.13Zm-.09-26.88A4.39,4.39,0,0,0,190.79,36a4.49,4.49,0,0,0-3.3-1.37A4.4,4.4,0,0,0,184.22,36a4.6,4.6,0,0,0,3.27,7.83,4.53,4.53,0,0,0,3.3-1.37A4.43,4.43,0,0,0,192.16,39.25Z"/><path class="cls-1" d="M248,65.76v4.49H210.46V65.76h16.21V55.91H213.48V34.16h5.08V51.43h27v4.48H231.75v9.85Z"/><path class="cls-1" d="M269,50.6V46.8H255.78V32.88h31.55v4.3H260.81v5.36h26.61V46.8H274.05v3.8H290.3v4.31H252.76V50.6Zm12.6,14.93a8.56,8.56,0,0,1-.8,3.64,9.5,9.5,0,0,1-2.13,3,11.06,11.06,0,0,1-3.23,2,10.23,10.23,0,0,1-7.74,0,11.19,11.19,0,0,1-3.23-2,9.5,9.5,0,0,1-2.13-3,8.68,8.68,0,0,1,0-7.28,9.62,9.62,0,0,1,2.13-3,11.19,11.19,0,0,1,3.23-2,10.23,10.23,0,0,1,7.74,0,11.06,11.06,0,0,1,3.23,2,9.62,9.62,0,0,1,2.13,3A8.56,8.56,0,0,1,281.56,65.53Zm-4.9-.09a4.92,4.92,0,0,0-1.51-3.6,5.17,5.17,0,0,0-7.24,0,4.88,4.88,0,0,0-1.51,3.6A4.77,4.77,0,0,0,267.91,69a5.19,5.19,0,0,0,7.24,0A4.81,4.81,0,0,0,276.66,65.44Z"/><path class="cls-1" d="M295.53,58.22h37.54v4.49H316.82V73.24h-5.08V62.71H295.53Zm8-20H325V33.08h5V52.73h-31.5V33.08h5ZM325,42.65H303.54v5.63H325Z"/><path class="cls-2" d="M76.57,47.33C68,41.48,56.93,43.87,51.14,52.67a17.9,17.9,0,0,1-32.36-4.92h0l-.05-.19a1.55,1.55,0,0,1-.06-.23,22.73,22.73,0,0,1-.92-7.11c0-16,16.46-33.89,40.16-33.89,24.27,0,38.16,18.47,41.74,28.74l-.18-.54A51.12,51.12,0,0,0,0,51.11C0,76.34,18.2,97.94,43.44,97.94c20.14,0,33.67-11.29,39.87-26.85C86.72,62.59,84.31,52.59,76.57,47.33Z"/><path class="cls-3" d="M100,36.07c-3-10-17-29.74-42.06-29.74-23.7,0-40.16,17.85-40.16,33.89a22.73,22.73,0,0,0,.92,7.11,14.84,14.84,0,0,1-.47-3.64C18.2,27,34.92,15.41,52.12,15.41A42.14,42.14,0,0,1,94.26,57.55,46.46,46.46,0,0,1,68.5,99.17h0A51.22,51.22,0,0,0,100,36.07Z"/></g></g></svg>